<?xml version="1.0" standalone="no"?>
<!DOCTYPE svg PUBLIC "-//W3C//DTD SVG 20010904//EN"
 "http://www.w3.org/TR/2001/REC-SVG-20010904/DTD/svg10.dtd">
<svg version="1.0" xmlns="http://www.w3.org/2000/svg"
 width="126.000000pt" height="126.000000pt" viewBox="0 0 126.000000 126.000000"
 preserveAspectRatio="xMidYMid meet">
<metadata>
Created by potrace 1.14, written by Peter Selinger 2001-2017
</metadata>
<g transform="translate(0.000000,126.000000) scale(0.100000,-0.100000)"
fill="#000000" stroke="none">
<path d="M982 1078 c-60 -29 -135 -114 -161 -185 -21 -57 -43 -153 -56 -245
l-6 -48 -130 0 -131 0 7 68 c4 37 13 98 20 136 l13 69 -71 -6 c-102 -8 -162
-32 -218 -86 -62 -61 -92 -155 -73 -229 7 -23 7 -23 45 14 32 31 36 40 28 61
-38 101 29 183 149 183 l48 0 -22 -198 c-12 -109 -27 -216 -33 -238 -14 -52
-50 -87 -82 -79 -19 5 -31 -1 -53 -24 l-28 -29 97 -7 c92 -7 97 -6 121 16 34
32 30 39 -23 39 l-46 0 41 30 c44 32 55 58 67 163 l7 57 131 0 130 0 -6 -59
c-4 -32 -9 -102 -13 -155 l-7 -96 29 11 c58 21 158 74 161 85 3 8 -7 9 -37 1
-57 -16 -63 -4 -55 113 15 250 59 510 95 560 29 40 76 54 126 37 37 -13 41
-12 77 16 29 22 35 32 25 38 -25 16 -121 9 -166 -13z"/>
</g>
</svg>
